<svg width="485" height="331" viewBox="0 0 485 331" fill="none" xmlns="http://www.w3.org/2000/svg">
<rect width="485" height="331" fill="#1E1E1E"/>
<g id="Frame 1">
<rect width="485" height="331" fill="white"/>
<ellipse id="Ellipse 1" cx="242.5" cy="165" rx="85.5" ry="83" transform="rotate(-41 242.5 165)" fill="url(#paint0_radial_0_1)"/>
<g id="Ellipse 2" filter="url(#filter0_d_0_1)">
<ellipse cx="242.228" cy="162.271" rx="41" ry="40" transform="rotate(-46.7431 242.228 162.271)" fill="url(#paint1_linear_0_1)" fill-opacity="0.63" shape-rendering="crispEdges"/>
</g>
<path id="ALX" d="M229.72 170L228.04 165.056H221.272L219.592 170H217.552L223.408 153.248H225.976L231.832 170H229.72ZM224.704 155.12H224.584L221.752 163.28H227.536L224.704 155.12ZM240.367 170V153.248H242.383V168.224H249.511V170H240.367ZM270.054 170H267.63L263.238 162.968H263.19L258.798 170H256.494L261.966 161.48L256.638 153.248H259.062L263.262 159.92H263.31L267.606 153.248H269.91L264.534 161.408L270.054 170Z" fill="black"/>
<path id="S.E" d="M224.176 238.288C222.736 238.288 221.512 238.032 220.504 237.52C219.512 237.008 218.656 236.336 217.936 235.504L220.072 233.44C220.648 234.112 221.288 234.624 221.992 234.976C222.712 235.328 223.504 235.504 224.368 235.504C225.344 235.504 226.08 235.296 226.576 234.88C227.072 234.448 227.32 233.872 227.32 233.152C227.32 232.592 227.16 232.136 226.84 231.784C226.52 231.432 225.92 231.176 225.04 231.016L223.456 230.776C220.112 230.248 218.44 228.624 218.44 225.904C218.44 225.152 218.576 224.472 218.848 223.864C219.136 223.256 219.544 222.736 220.072 222.304C220.6 221.872 221.232 221.544 221.968 221.32C222.72 221.08 223.568 220.96 224.512 220.96C225.776 220.96 226.88 221.168 227.824 221.584C228.768 222 229.576 222.616 230.248 223.432L228.088 225.472C227.672 224.96 227.168 224.544 226.576 224.224C225.984 223.904 225.24 223.744 224.344 223.744C223.432 223.744 222.744 223.92 222.28 224.272C221.832 224.608 221.608 225.088 221.608 225.712C221.608 226.352 221.792 226.824 222.16 227.128C222.528 227.432 223.12 227.656 223.936 227.8L225.496 228.088C227.192 228.392 228.44 228.936 229.24 229.72C230.056 230.488 230.464 231.568 230.464 232.96C230.464 233.76 230.32 234.488 230.032 235.144C229.76 235.784 229.352 236.344 228.808 236.824C228.28 237.288 227.624 237.648 226.84 237.904C226.072 238.16 225.184 238.288 224.176 238.288ZM241.008 238.264C240.352 238.264 239.864 238.104 239.544 237.784C239.24 237.448 239.088 237.024 239.088 236.512V236.08C239.088 235.568 239.24 235.144 239.544 234.808C239.864 234.472 240.352 234.304 241.008 234.304C241.68 234.304 242.168 234.472 242.472 234.808C242.776 235.144 242.928 235.568 242.928 236.08V236.512C242.928 237.024 242.776 237.448 242.472 237.784C242.168 238.104 241.68 238.264 241.008 238.264ZM252.332 238V221.248H263.372V224.056H255.5V228.112H262.46V230.92H255.5V235.192H263.372V238H252.332Z" fill="#F1A027" fill-opacity="0.88"/>
<path id="CORORT-6 LAB" d="M132.136 292.288C130.008 292.288 128.352 291.568 127.168 290.128C125.984 288.672 125.392 286.536 125.392 283.72C125.392 280.904 125.984 278.744 127.168 277.24C128.352 275.72 130.008 274.96 132.136 274.96C133.544 274.96 134.72 275.28 135.664 275.92C136.624 276.56 137.368 277.464 137.896 278.632L136.264 279.616C135.928 278.752 135.416 278.064 134.728 277.552C134.04 277.024 133.176 276.76 132.136 276.76C131.416 276.76 130.768 276.896 130.192 277.168C129.632 277.44 129.152 277.832 128.752 278.344C128.368 278.84 128.072 279.44 127.864 280.144C127.656 280.832 127.552 281.608 127.552 282.472V284.968C127.552 286.696 127.952 288.048 128.752 289.024C129.552 290 130.68 290.488 132.136 290.488C133.208 290.488 134.104 290.216 134.824 289.672C135.544 289.112 136.072 288.376 136.408 287.464L138.016 288.472C137.488 289.656 136.728 290.592 135.736 291.28C134.744 291.952 133.544 292.288 132.136 292.288ZM152.858 292.288C151.77 292.288 150.786 292.104 149.906 291.736C149.042 291.352 148.298 290.8 147.674 290.08C147.066 289.344 146.594 288.44 146.258 287.368C145.922 286.28 145.754 285.032 145.754 283.624C145.754 282.216 145.922 280.976 146.258 279.904C146.594 278.832 147.066 277.928 147.674 277.192C148.298 276.456 149.042 275.904 149.906 275.536C150.786 275.152 151.77 274.96 152.858 274.96C153.93 274.96 154.906 275.152 155.786 275.536C156.666 275.904 157.41 276.456 158.018 277.192C158.642 277.928 159.122 278.832 159.458 279.904C159.794 280.976 159.962 282.216 159.962 283.624C159.962 285.032 159.794 286.28 159.458 287.368C159.122 288.44 158.642 289.344 158.018 290.08C157.41 290.8 156.666 291.352 155.786 291.736C154.906 292.104 153.93 292.288 152.858 292.288ZM152.858 290.488C153.578 290.488 154.242 290.36 154.85 290.104C155.458 289.848 155.978 289.48 156.41 289C156.858 288.52 157.202 287.944 157.442 287.272C157.682 286.6 157.802 285.848 157.802 285.016V282.232C157.802 281.4 157.682 280.648 157.442 279.976C157.202 279.304 156.858 278.728 156.41 278.248C155.978 277.768 155.458 277.4 154.85 277.144C154.242 276.888 153.578 276.76 152.858 276.76C152.138 276.76 151.474 276.888 150.866 277.144C150.258 277.4 149.73 277.768 149.282 278.248C148.85 278.728 148.514 279.304 148.274 279.976C148.034 280.648 147.914 281.4 147.914 282.232V285.016C147.914 285.848 148.034 286.6 148.274 287.272C148.514 287.944 148.85 288.52 149.282 289C149.73 289.48 150.258 289.848 150.866 290.104C151.474 290.36 152.138 290.488 152.858 290.488ZM171.362 292H169.346V275.248H176.018C177.49 275.248 178.634 275.656 179.45 276.472C180.282 277.288 180.698 278.464 180.698 280C180.698 281.232 180.41 282.248 179.834 283.048C179.274 283.832 178.442 284.352 177.338 284.608L181.178 292H178.898L175.274 284.8H171.362V292ZM176.018 283.072C176.818 283.072 177.434 282.864 177.866 282.448C178.314 282.032 178.538 281.44 178.538 280.672V279.424C178.538 278.656 178.314 278.064 177.866 277.648C177.434 277.232 176.818 277.024 176.018 277.024H171.362V283.072H176.018ZM196.487 292.288C195.399 292.288 194.415 292.104 193.535 291.736C192.671 291.352 191.927 290.8 191.303 290.08C190.695 289.344 190.223 288.44 189.887 287.368C189.551 286.28 189.383 285.032 189.383 283.624C189.383 282.216 189.551 280.976 189.887 279.904C190.223 278.832 190.695 277.928 191.303 277.192C191.927 276.456 192.671 275.904 193.535 275.536C194.415 275.152 195.399 274.96 196.487 274.96C197.559 274.96 198.535 275.152 199.415 275.536C200.295 275.904 201.039 276.456 201.647 277.192C202.271 277.928 202.751 278.832 203.087 279.904C203.423 280.976 203.591 282.216 203.591 283.624C203.591 285.032 203.423 286.28 203.087 287.368C202.751 288.44 202.271 289.344 201.647 290.08C201.039 290.8 200.295 291.352 199.415 291.736C198.535 292.104 197.559 292.288 196.487 292.288ZM196.487 290.488C197.207 290.488 197.871 290.36 198.479 290.104C199.087 289.848 199.607 289.48 200.039 289C200.487 288.52 200.831 287.944 201.071 287.272C201.311 286.6 201.431 285.848 201.431 285.016V282.232C201.431 281.4 201.311 280.648 201.071 279.976C200.831 279.304 200.487 278.728 200.039 278.248C199.607 277.768 199.087 277.4 198.479 277.144C197.871 276.888 197.207 276.76 196.487 276.76C195.767 276.76 195.103 276.888 194.495 277.144C193.887 277.4 193.359 277.768 192.911 278.248C192.479 278.728 192.143 279.304 191.903 279.976C191.663 280.648 191.543 281.4 191.543 282.232V285.016C191.543 285.848 191.663 286.6 191.903 287.272C192.143 287.944 192.479 288.52 192.911 289C193.359 289.48 193.887 289.848 194.495 290.104C195.103 290.36 195.767 290.488 196.487 290.488ZM214.991 292H212.975V275.248H219.647C221.119 275.248 222.263 275.656 223.079 276.472C223.911 277.288 224.327 278.464 224.327 280C224.327 281.232 224.039 282.248 223.463 283.048C222.903 283.832 222.071 284.352 220.967 284.608L224.807 292H222.527L218.903 284.8H214.991V292ZM219.647 283.072C220.447 283.072 221.063 282.864 221.495 282.448C221.943 282.032 222.167 281.44 222.167 280.672V279.424C222.167 278.656 221.943 278.064 221.495 277.648C221.063 277.232 220.447 277.024 219.647 277.024H214.991V283.072H219.647ZM239.141 277.024V292H237.125V277.024H231.797V275.248H244.469V277.024H239.141ZM251.224 285.736V283.672H257.488V285.736H251.224ZM272.138 292.288C271.274 292.288 270.49 292.144 269.786 291.856C269.098 291.552 268.506 291.128 268.01 290.584C267.53 290.024 267.162 289.344 266.906 288.544C266.65 287.744 266.522 286.848 266.522 285.856C266.522 284.608 266.706 283.44 267.074 282.352C267.442 281.248 267.914 280.248 268.49 279.352C269.082 278.44 269.73 277.64 270.434 276.952C271.138 276.248 271.826 275.68 272.498 275.248H275.09C274.194 275.904 273.394 276.544 272.69 277.168C271.986 277.792 271.37 278.448 270.842 279.136C270.314 279.808 269.866 280.536 269.498 281.32C269.13 282.088 268.834 282.96 268.61 283.936L268.73 283.984C269.13 283.296 269.642 282.728 270.266 282.28C270.906 281.816 271.738 281.584 272.762 281.584C273.482 281.584 274.146 281.704 274.754 281.944C275.362 282.184 275.882 282.528 276.314 282.976C276.746 283.424 277.082 283.968 277.322 284.608C277.578 285.248 277.706 285.96 277.706 286.744C277.706 287.56 277.57 288.312 277.298 289C277.042 289.672 276.666 290.256 276.17 290.752C275.69 291.232 275.106 291.608 274.418 291.88C273.73 292.152 272.97 292.288 272.138 292.288ZM272.114 290.536C273.218 290.536 274.074 290.232 274.682 289.624C275.306 289.016 275.618 288.144 275.618 287.008V286.816C275.618 285.68 275.306 284.808 274.682 284.2C274.074 283.592 273.218 283.288 272.114 283.288C271.01 283.288 270.146 283.592 269.522 284.2C268.914 284.808 268.61 285.68 268.61 286.816V287.008C268.61 288.144 268.914 289.016 269.522 289.624C270.146 290.232 271.01 290.536 272.114 290.536ZM298.728 292V275.248H300.744V290.224H307.872V292H298.728ZM327.445 292L325.765 287.056H318.997L317.317 292H315.277L321.133 275.248H323.701L329.557 292H327.445ZM322.429 277.12H322.309L319.477 285.28H325.261L322.429 277.12ZM338.092 275.248H344.98C346.372 275.248 347.46 275.64 348.244 276.424C349.044 277.208 349.444 278.256 349.444 279.568C349.444 280.192 349.356 280.72 349.18 281.152C349.004 281.584 348.78 281.944 348.508 282.232C348.236 282.504 347.94 282.712 347.62 282.856C347.3 282.984 347.004 283.072 346.732 283.12V283.264C347.036 283.28 347.372 283.36 347.74 283.504C348.124 283.648 348.484 283.88 348.82 284.2C349.156 284.504 349.436 284.904 349.66 285.4C349.9 285.88 350.02 286.464 350.02 287.152C350.02 287.84 349.908 288.48 349.684 289.072C349.476 289.664 349.18 290.176 348.796 290.608C348.412 291.04 347.956 291.384 347.428 291.64C346.9 291.88 346.324 292 345.7 292H338.092V275.248ZM340.108 290.224H345.076C345.94 290.224 346.62 290.008 347.116 289.576C347.612 289.128 347.86 288.48 347.86 287.632V286.816C347.86 285.968 347.612 285.328 347.116 284.896C346.62 284.448 345.94 284.224 345.076 284.224H340.108V290.224ZM340.108 282.496H344.74C345.54 282.496 346.164 282.296 346.612 281.896C347.06 281.496 347.284 280.92 347.284 280.168V279.352C347.284 278.6 347.06 278.024 346.612 277.624C346.164 277.224 345.54 277.024 344.74 277.024H340.108V282.496Z" fill="#980606"/>
</g>
<defs>
<filter id="filter0_d_0_1" x="197.755" y="121.737" width="88.9454" height="89.0674" filterUnits="userSpaceOnUse" color-interpolation-filters="sRGB">
<feFlood flood-opacity="0" result="BackgroundImageFix"/>
<feColorMatrix in="SourceAlpha" type="matrix" values="0 0 0 0 0 0 0 0 0 0 0 0 0 0 0 0 0 0 127 0" result="hardAlpha"/>
<feOffset dy="4"/>
<feGaussianBlur stdDeviation="2"/>
<feComposite in2="hardAlpha" operator="out"/>
<feColorMatrix type="matrix" values="0 0 0 0 0 0 0 0 0 0 0 0 0 0 0 0 0 0 0.25 0"/>
<feBlend mode="normal" in2="BackgroundImageFix" result="effect1_dropShadow_0_1"/>
<feBlend mode="normal" in="SourceGraphic" in2="effect1_dropShadow_0_1" result="shape"/>
</filter>
<radialGradient id="paint0_radial_0_1" cx="0" cy="0" r="1" gradientUnits="userSpaceOnUse" gradientTransform="translate(235.089 84.3568) rotate(83.3426) scale(167.765 172.818)">
<stop offset="0.71875" stop-color="#324424"/>
<stop offset="0.947917" stop-color="#3AA7A0" stop-opacity="0.5"/>
</radialGradient>
<linearGradient id="paint1_linear_0_1" x1="242.228" y1="122.271" x2="242.228" y2="202.271" gradientUnits="userSpaceOnUse">
<stop offset="0.557292" stop-color="#A4C7DB"/>
<stop offset="1" stop-color="#9FD1ED" stop-opacity="0"/>
</linearGradient>
</defs>
</svg>
