<svg width="485" height="331" viewBox="0 0 485 331" fill="none" xmlns="http://www.w3.org/2000/svg">
<path d="M132.136 292.288C130.008 292.288 128.352 291.568 127.168 290.128C125.984 288.672 125.392 286.536 125.392 283.72C125.392 280.904 125.984 278.744 127.168 277.24C128.352 275.72 130.008 274.96 132.136 274.96C133.544 274.96 134.72 275.28 135.664 275.92C136.624 276.56 137.368 277.464 137.896 278.632L136.264 279.616C135.928 278.752 135.416 278.064 134.728 277.552C134.04 277.024 133.176 276.76 132.136 276.76C131.416 276.76 130.768 276.896 130.192 277.168C129.632 277.44 129.152 277.832 128.752 278.344C128.368 278.84 128.072 279.44 127.864 280.144C127.656 280.832 127.552 281.608 127.552 282.472V284.968C127.552 286.696 127.952 288.048 128.752 289.024C129.552 290 130.68 290.488 132.136 290.488C133.208 290.488 134.104 290.216 134.824 289.672C135.544 289.112 136.072 288.376 136.408 287.464L138.016 288.472C137.488 289.656 136.728 290.592 135.736 291.28C134.744 291.952 133.544 292.288 132.136 292.288ZM152.858 292.288C151.77 292.288 150.786 292.104 149.906 291.736C149.042 291.352 148.298 290.8 147.674 290.08C147.066 289.344 146.594 288.44 146.258 287.368C145.922 286.28 145.754 285.032 145.754 283.624C145.754 282.216 145.922 280.976 146.258 279.904C146.594 278.832 147.066 277.928 147.674 277.192C148.298 276.456 149.042 275.904 149.906 275.536C150.786 275.152 151.77 274.96 152.858 274.96C153.93 274.96 154.906 275.152 155.786 275.536C156.666 275.904 157.41 276.456 158.018 277.192C158.642 277.928 159.122 278.832 159.458 279.904C159.794 280.976 159.962 282.216 159.962 283.624C159.962 285.032 159.794 286.28 159.458 287.368C159.122 288.44 158.642 289.344 158.018 290.08C157.41 290.8 156.666 291.352 155.786 291.736C154.906 292.104 153.93 292.288 152.858 292.288ZM152.858 290.488C153.578 290.488 154.242 290.36 154.85 290.104C155.458 289.848 155.978 289.48 156.41 289C156.858 288.52 157.202 287.944 157.442 287.272C157.682 286.6 157.802 285.848 157.802 285.016V282.232C157.802 281.4 157.682 280.648 157.442 279.976C157.202 279.304 156.858 278.728 156.41 278.248C155.978 277.768 155.458 277.4 154.85 277.144C154.242 276.888 153.578 276.76 152.858 276.76C152.138 276.76 151.474 276.888 150.866 277.144C150.258 277.4 149.73 277.768 149.282 278.248C148.85 278.728 148.514 279.304 148.274 279.976C148.034 280.648 147.914 281.4 147.914 282.232V285.016C147.914 285.848 148.034 286.6 148.274 287.272C148.514 287.944 148.85 288.52 149.282 289C149.73 289.48 150.258 289.848 150.866 290.104C151.474 290.36 152.138 290.488 152.858 290.488ZM179.834 284.416H171.362V292H169.346V275.248H171.362V282.64H179.834V275.248H181.85V292H179.834V284.416ZM198.338 292.288C197.25 292.288 196.266 292.104 195.386 291.736C194.522 291.352 193.778 290.8 193.154 290.08C192.546 289.344 192.074 288.44 191.738 287.368C191.402 286.28 191.234 285.032 191.234 283.624C191.234 282.216 191.402 280.976 191.738 279.904C192.074 278.832 192.546 277.928 193.154 277.192C193.778 276.456 194.522 275.904 195.386 275.536C196.266 275.152 197.25 274.96 198.338 274.96C199.41 274.96 200.386 275.152 201.266 275.536C202.146 275.904 202.89 276.456 203.498 277.192C204.122 277.928 204.602 278.832 204.938 279.904C205.274 280.976 205.442 282.216 205.442 283.624C205.442 285.032 205.274 286.28 204.938 287.368C204.602 288.44 204.122 289.344 203.498 290.08C202.89 290.8 202.146 291.352 201.266 291.736C200.386 292.104 199.41 292.288 198.338 292.288ZM198.338 290.488C199.058 290.488 199.722 290.36 200.33 290.104C200.938 289.848 201.458 289.48 201.89 289C202.338 288.52 202.682 287.944 202.922 287.272C203.162 286.6 203.282 285.848 203.282 285.016V282.232C203.282 281.4 203.162 280.648 202.922 279.976C202.682 279.304 202.338 278.728 201.89 278.248C201.458 277.768 200.938 277.4 200.33 277.144C199.722 276.888 199.058 276.76 198.338 276.76C197.618 276.76 196.954 276.888 196.346 277.144C195.738 277.4 195.21 277.768 194.762 278.248C194.33 278.728 193.994 279.304 193.754 279.976C193.514 280.648 193.394 281.4 193.394 282.232V285.016C193.394 285.848 193.514 286.6 193.754 287.272C193.994 287.944 194.33 288.52 194.762 289C195.21 289.48 195.738 289.848 196.346 290.104C196.954 290.36 197.618 290.488 198.338 290.488ZM216.843 292H214.827V275.248H221.499C222.971 275.248 224.115 275.656 224.931 276.472C225.763 277.288 226.179 278.464 226.179 280C226.179 281.232 225.891 282.248 225.315 283.048C224.755 283.832 223.923 284.352 222.819 284.608L226.659 292H224.379L220.755 284.8H216.843V292ZM221.499 283.072C222.299 283.072 222.915 282.864 223.347 282.448C223.795 282.032 224.019 281.44 224.019 280.672V279.424C224.019 278.656 223.795 278.064 223.347 277.648C222.915 277.232 222.299 277.024 221.499 277.024H216.843V283.072H221.499ZM240.992 277.024V292H238.976V277.024H233.648V275.248H246.32V277.024H240.992ZM253.075 285.736V283.672H259.339V285.736H253.075ZM273.989 292.288C273.125 292.288 272.341 292.144 271.637 291.856C270.949 291.552 270.357 291.128 269.861 290.584C269.381 290.024 269.013 289.344 268.757 288.544C268.501 287.744 268.373 286.848 268.373 285.856C268.373 284.608 268.557 283.44 268.925 282.352C269.293 281.248 269.765 280.248 270.341 279.352C270.933 278.44 271.581 277.64 272.285 276.952C272.989 276.248 273.677 275.68 274.349 275.248H276.941C276.045 275.904 275.245 276.544 274.541 277.168C273.837 277.792 273.221 278.448 272.693 279.136C272.165 279.808 271.717 280.536 271.349 281.32C270.981 282.088 270.685 282.96 270.461 283.936L270.581 283.984C270.981 283.296 271.493 282.728 272.117 282.28C272.757 281.816 273.589 281.584 274.613 281.584C275.333 281.584 275.997 281.704 276.605 281.944C277.213 282.184 277.733 282.528 278.165 282.976C278.597 283.424 278.933 283.968 279.173 284.608C279.429 285.248 279.557 285.96 279.557 286.744C279.557 287.56 279.421 288.312 279.149 289C278.893 289.672 278.517 290.256 278.021 290.752C277.541 291.232 276.957 291.608 276.269 291.88C275.581 292.152 274.821 292.288 273.989 292.288ZM273.965 290.536C275.069 290.536 275.925 290.232 276.533 289.624C277.157 289.016 277.469 288.144 277.469 287.008V286.816C277.469 285.68 277.157 284.808 276.533 284.2C275.925 283.592 275.069 283.288 273.965 283.288C272.861 283.288 271.997 283.592 271.373 284.2C270.765 284.808 270.461 285.68 270.461 286.816V287.008C270.461 288.144 270.765 289.016 271.373 289.624C271.997 290.232 272.861 290.536 273.965 290.536ZM300.58 292V275.248H302.596V290.224H309.724V292H300.58ZM329.297 292L327.617 287.056H320.849L319.169 292H317.129L322.985 275.248H325.553L331.409 292H329.297ZM324.281 277.12H324.161L321.329 285.28H327.113L324.281 277.12ZM339.944 275.248H346.832C348.224 275.248 349.312 275.64 350.096 276.424C350.896 277.208 351.296 278.256 351.296 279.568C351.296 280.192 351.208 280.72 351.032 281.152C350.856 281.584 350.632 281.944 350.36 282.232C350.088 282.504 349.792 282.712 349.472 282.856C349.152 282.984 348.856 283.072 348.584 283.12V283.264C348.888 283.28 349.224 283.36 349.592 283.504C349.976 283.648 350.336 283.88 350.672 284.2C351.008 284.504 351.288 284.904 351.512 285.4C351.752 285.88 351.872 286.464 351.872 287.152C351.872 287.84 351.76 288.48 351.536 289.072C351.328 289.664 351.032 290.176 350.648 290.608C350.264 291.04 349.808 291.384 349.28 291.64C348.752 291.88 348.176 292 347.552 292H339.944V275.248ZM341.96 290.224H346.928C347.792 290.224 348.472 290.008 348.968 289.576C349.464 289.128 349.712 288.48 349.712 287.632V286.816C349.712 285.968 349.464 285.328 348.968 284.896C348.472 284.448 347.792 284.224 346.928 284.224H341.96V290.224ZM341.96 282.496H346.592C347.392 282.496 348.016 282.296 348.464 281.896C348.912 281.496 349.136 280.92 349.136 280.168V279.352C349.136 278.6 348.912 278.024 348.464 277.624C348.016 277.224 347.392 277.024 346.592 277.024H341.96V282.496Z" fill="#980606"/>
<ellipse cx="242.5" cy="165" rx="85.5" ry="83" transform="rotate(-41 242.5 165)" fill="url(#paint0_radial_0_1)"/>
<g filter="url(#filter0_d_0_1)">
<ellipse cx="242.228" cy="162.271" rx="41" ry="40" transform="rotate(-46.7431 242.228 162.271)" fill="url(#paint1_linear_0_1)" fill-opacity="0.63" shape-rendering="crispEdges"/>
</g>
<path d="M229.243 154.616C228.688 154.616 228.283 154.488 228.027 154.232C227.792 153.955 227.675 153.603 227.675 153.176V152.76C227.675 152.333 227.792 151.992 228.027 151.736C228.283 151.459 228.688 151.32 229.243 151.32C229.797 151.32 230.192 151.459 230.427 151.736C230.683 151.992 230.811 152.333 230.811 152.76V153.176C230.811 153.603 230.683 153.955 230.427 154.232C230.192 154.488 229.797 154.616 229.243 154.616ZM227.963 158.488H230.523V175H227.963V158.488ZM247.291 175L241.499 158.488H244.059L246.939 166.68L248.731 172.312H248.891L250.683 166.68L253.627 158.488H256.091L250.267 175H247.291Z" fill="black"/>
<path d="M224.176 238.288C222.736 238.288 221.512 238.032 220.504 237.52C219.512 237.008 218.656 236.336 217.936 235.504L220.072 233.44C220.648 234.112 221.288 234.624 221.992 234.976C222.712 235.328 223.504 235.504 224.368 235.504C225.344 235.504 226.08 235.296 226.576 234.88C227.072 234.448 227.32 233.872 227.32 233.152C227.32 232.592 227.16 232.136 226.84 231.784C226.52 231.432 225.92 231.176 225.04 231.016L223.456 230.776C220.112 230.248 218.44 228.624 218.44 225.904C218.44 225.152 218.576 224.472 218.848 223.864C219.136 223.256 219.544 222.736 220.072 222.304C220.6 221.872 221.232 221.544 221.968 221.32C222.72 221.08 223.568 220.96 224.512 220.96C225.776 220.96 226.88 221.168 227.824 221.584C228.768 222 229.576 222.616 230.248 223.432L228.088 225.472C227.672 224.96 227.168 224.544 226.576 224.224C225.984 223.904 225.24 223.744 224.344 223.744C223.432 223.744 222.744 223.92 222.28 224.272C221.832 224.608 221.608 225.088 221.608 225.712C221.608 226.352 221.792 226.824 222.16 227.128C222.528 227.432 223.12 227.656 223.936 227.8L225.496 228.088C227.192 228.392 228.44 228.936 229.24 229.72C230.056 230.488 230.464 231.568 230.464 232.96C230.464 233.76 230.32 234.488 230.032 235.144C229.76 235.784 229.352 236.344 228.808 236.824C228.28 237.288 227.624 237.648 226.84 237.904C226.072 238.16 225.184 238.288 224.176 238.288ZM241.008 238.264C240.352 238.264 239.864 238.104 239.544 237.784C239.24 237.448 239.088 237.024 239.088 236.512V236.08C239.088 235.568 239.24 235.144 239.544 234.808C239.864 234.472 240.352 234.304 241.008 234.304C241.68 234.304 242.168 234.472 242.472 234.808C242.776 235.144 242.928 235.568 242.928 236.08V236.512C242.928 237.024 242.776 237.448 242.472 237.784C242.168 238.104 241.68 238.264 241.008 238.264ZM252.332 238V221.248H263.372V224.056H255.5V228.112H262.46V230.92H255.5V235.192H263.372V238H252.332Z" fill="#F1A027" fill-opacity="0.88"/>
<defs>
<filter id="filter0_d_0_1" x="197.755" y="121.737" width="88.9454" height="89.0674" filterUnits="userSpaceOnUse" color-interpolation-filters="sRGB">
<feFlood flood-opacity="0" result="BackgroundImageFix"/>
<feColorMatrix in="SourceAlpha" type="matrix" values="0 0 0 0 0 0 0 0 0 0 0 0 0 0 0 0 0 0 127 0" result="hardAlpha"/>
<feOffset dy="4"/>
<feGaussianBlur stdDeviation="2"/>
<feComposite in2="hardAlpha" operator="out"/>
<feColorMatrix type="matrix" values="0 0 0 0 0 0 0 0 0 0 0 0 0 0 0 0 0 0 0.25 0"/>
<feBlend mode="normal" in2="BackgroundImageFix" result="effect1_dropShadow_0_1"/>
<feBlend mode="normal" in="SourceGraphic" in2="effect1_dropShadow_0_1" result="shape"/>
</filter>
<radialGradient id="paint0_radial_0_1" cx="0" cy="0" r="1" gradientUnits="userSpaceOnUse" gradientTransform="translate(235.089 84.3568) rotate(83.3426) scale(167.765 172.818)">
<stop offset="0.71875" stop-color="#324424"/>
<stop offset="0.947917" stop-color="#3AA7A0" stop-opacity="0.5"/>
</radialGradient>
<linearGradient id="paint1_linear_0_1" x1="242.228" y1="122.271" x2="242.228" y2="202.271" gradientUnits="userSpaceOnUse">
<stop offset="0.557292" stop-color="#A4C7DB"/>
<stop offset="1" stop-color="#9FD1ED" stop-opacity="0"/>
</linearGradient>
</defs>
</svg>
