<svg width="20" height="16" viewBox="0 0 20 16" fill="none" xmlns="http://www.w3.org/2000/svg">
<path d="M2.55673 15.3842C2.32711 15.3842 2.08424 15.2649 1.82813 15.0265C1.58084 14.788 1.36889 14.4834 1.19226 14.1124C1.02446 13.7327 0.940557 13.3441 0.940557 12.9467C0.940557 12.6729 1.00238 12.4918 1.12602 12.4035C1.24966 12.3064 1.44837 12.2578 1.72215 12.2578H3.84171C4.30978 10.3679 4.72045 7.59918 5.07371 3.95177H4.08016C3.51495 3.95177 3.02921 4.06657 2.62296 4.29619C2.22554 4.51698 1.94735 4.79959 1.78838 5.14402L0.808084 4.66712C0.808084 4.07541 0.984715 3.56759 1.33798 3.14368C1.69124 2.71094 2.15931 2.38417 2.74219 2.16338C3.3339 1.93376 3.9786 1.81895 4.67629 1.81895H16.1087L15.8305 3.96501H12.9691L12.7704 11.8074C12.7527 12.4521 12.8499 12.9158 13.0618 13.1984C13.2738 13.481 13.6756 13.6223 14.2673 13.6223C14.4793 13.6223 14.6868 13.5914 14.8899 13.5296C15.0931 13.4589 15.3094 13.3573 15.5391 13.2249C15.645 13.1719 15.7554 13.2646 15.8702 13.5031C15.9851 13.7327 16.0425 13.9535 16.0425 14.1654C16.0425 14.3067 16.016 14.4039 15.963 14.4569C15.1681 15.0751 14.1039 15.3842 12.7704 15.3842C11.8077 15.3842 11.1012 15.1546 10.6508 14.6953C10.2092 14.2272 9.98845 13.534 9.98845 12.6155C9.98845 12.4035 10.0282 11.9443 10.1077 11.2378C10.196 10.5224 10.3417 9.35224 10.5448 7.72724L11.0217 3.96501L7.02106 3.95177L6.53091 11.251C6.46026 12.2755 6.13791 13.2204 5.56386 14.0859C4.99864 14.9514 3.99626 15.3842 2.55673 15.3842Z" fill="#D37218"/>
<rect x="6" width="1" height="1" fill="#D37218"/>
<rect x="12" width="1" height="1" fill="#D37218"/>
<path d="M18.3 0.900002C17.2865 3.28772 15.2325 2.89835 14.3 2.84364" stroke="#D37218" stroke-width="2.08"/>
</svg>
