<svg width="173" height="170" viewBox="0 0 173 170" fill="none" xmlns="http://www.w3.org/2000/svg">
<rect width="485" height="331" transform="translate(-156 -81)" fill="white"/>
<ellipse cx="86.5" cy="84" rx="85.5" ry="83" transform="rotate(-41 86.5 84)" fill="url(#paint0_radial_3_2)"/>
<g filter="url(#filter0_d_3_2)">
<ellipse cx="86.2276" cy="81.2707" rx="41" ry="40" transform="rotate(-46.7431 86.2276 81.2707)" fill="url(#paint1_linear_3_2)" fill-opacity="0.63" shape-rendering="crispEdges"/>
</g>
<path d="M73.72 89L72.04 84.056H65.272L63.592 89H61.552L67.408 72.248H69.976L75.832 89H73.72ZM68.704 74.12H68.584L65.752 82.28H71.536L68.704 74.12ZM84.367 89V72.248H86.383V87.224H93.511V89H84.367ZM114.054 89H111.63L107.238 81.968H107.19L102.798 89H100.494L105.966 80.48L100.638 72.248H103.062L107.262 78.92H107.31L111.606 72.248H113.91L108.534 80.408L114.054 89Z" fill="black"/>
<path d="M68.176 157.288C66.736 157.288 65.512 157.032 64.504 156.52C63.512 156.008 62.656 155.336 61.936 154.504L64.072 152.44C64.648 153.112 65.288 153.624 65.992 153.976C66.712 154.328 67.504 154.504 68.368 154.504C69.344 154.504 70.08 154.296 70.576 153.88C71.072 153.448 71.32 152.872 71.32 152.152C71.32 151.592 71.16 151.136 70.84 150.784C70.52 150.432 69.92 150.176 69.04 150.016L67.456 149.776C64.112 149.248 62.44 147.624 62.44 144.904C62.44 144.152 62.576 143.472 62.848 142.864C63.136 142.256 63.544 141.736 64.072 141.304C64.6 140.872 65.232 140.544 65.968 140.32C66.72 140.08 67.568 139.96 68.512 139.96C69.776 139.96 70.88 140.168 71.824 140.584C72.768 141 73.576 141.616 74.248 142.432L72.088 144.472C71.672 143.96 71.168 143.544 70.576 143.224C69.984 142.904 69.24 142.744 68.344 142.744C67.432 142.744 66.744 142.92 66.28 143.272C65.832 143.608 65.608 144.088 65.608 144.712C65.608 145.352 65.792 145.824 66.16 146.128C66.528 146.432 67.12 146.656 67.936 146.8L69.496 147.088C71.192 147.392 72.44 147.936 73.24 148.72C74.056 149.488 74.464 150.568 74.464 151.96C74.464 152.76 74.32 153.488 74.032 154.144C73.76 154.784 73.352 155.344 72.808 155.824C72.28 156.288 71.624 156.648 70.84 156.904C70.072 157.16 69.184 157.288 68.176 157.288ZM85.0079 157.264C84.3519 157.264 83.8639 157.104 83.5439 156.784C83.2399 156.448 83.0879 156.024 83.0879 155.512V155.08C83.0879 154.568 83.2399 154.144 83.5439 153.808C83.8639 153.472 84.3519 153.304 85.0079 153.304C85.6799 153.304 86.1679 153.472 86.4719 153.808C86.7759 154.144 86.9279 154.568 86.9279 155.08V155.512C86.9279 156.024 86.7759 156.448 86.4719 156.784C86.1679 157.104 85.6799 157.264 85.0079 157.264ZM96.3318 157V140.248H107.372V143.056H99.4998V147.112H106.46V149.92H99.4998V154.192H107.372V157H96.3318Z" fill="#F1A027" fill-opacity="0.88"/>
<defs>
<filter id="filter0_d_3_2" x="41.7549" y="40.737" width="88.9454" height="89.0674" filterUnits="userSpaceOnUse" color-interpolation-filters="sRGB">
<feFlood flood-opacity="0" result="BackgroundImageFix"/>
<feColorMatrix in="SourceAlpha" type="matrix" values="0 0 0 0 0 0 0 0 0 0 0 0 0 0 0 0 0 0 127 0" result="hardAlpha"/>
<feOffset dy="4"/>
<feGaussianBlur stdDeviation="2"/>
<feComposite in2="hardAlpha" operator="out"/>
<feColorMatrix type="matrix" values="0 0 0 0 0 0 0 0 0 0 0 0 0 0 0 0 0 0 0.25 0"/>
<feBlend mode="normal" in2="BackgroundImageFix" result="effect1_dropShadow_3_2"/>
<feBlend mode="normal" in="SourceGraphic" in2="effect1_dropShadow_3_2" result="shape"/>
</filter>
<radialGradient id="paint0_radial_3_2" cx="0" cy="0" r="1" gradientUnits="userSpaceOnUse" gradientTransform="translate(79.0888 3.35681) rotate(83.3426) scale(167.765 172.818)">
<stop offset="0.71875" stop-color="#324424"/>
<stop offset="0.947917" stop-color="#3AA7A0" stop-opacity="0.5"/>
</radialGradient>
<linearGradient id="paint1_linear_3_2" x1="86.2276" y1="41.2707" x2="86.2276" y2="121.271" gradientUnits="userSpaceOnUse">
<stop offset="0.557292" stop-color="#A4C7DB"/>
<stop offset="1" stop-color="#9FD1ED" stop-opacity="0"/>
</linearGradient>
</defs>
</svg>
