<svg width="1018" height="516" viewBox="0 0 1018 516" fill="none" xmlns="http://www.w3.org/2000/svg">
<path d="M224.735 1.58676L292.251 148.042L454.54 124.955L358.894 255.626L460.305 381.875L297.143 366.091L236.265 515.427L168.749 368.972L6.45952 392.059L102.106 261.388L0.69483 135.138L163.857 150.923L224.735 1.58676Z" fill="#FFC700"/>
<path d="M782.028 0.879245L849.543 147.334L1011.83 124.248L916.186 254.918L1017.6 381.168L854.436 365.384L793.557 514.719L726.042 368.264L563.752 391.351L659.399 260.68L557.987 134.431L721.15 150.215L782.028 0.879245Z" fill="#FFC700"/>
<path d="M225.076 61.5341L277.131 173.915L402.291 156.185L328.517 256.467L406.715 353.34L280.886 341.241L233.924 455.844L181.869 343.463L56.7086 361.193L130.483 260.911L52.2849 164.038L178.114 176.137L225.076 61.5341Z" fill="#796B37"/>
<path d="M782.369 60.8266L834.424 173.207L959.584 155.477L885.81 255.76L964.008 352.632L838.178 340.534L791.216 455.136L739.161 342.755L614.001 360.486L687.775 260.203L609.578 163.331L735.407 175.429L782.369 60.8266Z" fill="#796B37"/>
</svg>
