<svg width="1576" height="516" viewBox="0 0 1576 516" fill="none" xmlns="http://www.w3.org/2000/svg">
<path d="M782.735 1.58676L850.251 148.042L1012.54 124.955L916.894 255.626L1018.31 381.875L855.143 366.091L794.265 515.427L726.749 368.972L564.46 392.059L660.106 261.388L558.695 135.138L721.857 150.923L782.735 1.58676Z" fill="#FFC700"/>
<path d="M225.028 1.87924L292.543 148.334L454.833 125.248L359.186 255.918L460.598 382.168L297.436 366.384L236.557 515.719L169.042 369.264L6.75213 392.351L102.399 261.68L0.987432 135.431L164.15 151.215L225.028 1.87924Z" fill="#FFC700"/>
<path d="M1340.03 0.879245L1407.54 147.334L1569.83 124.248L1474.19 254.918L1575.6 381.168L1412.44 365.384L1351.56 514.719L1284.04 368.264L1121.75 391.351L1217.4 260.68L1115.99 134.431L1279.15 150.215L1340.03 0.879245Z" fill="#FFC700"/>
<path d="M783.076 61.5341L835.131 173.915L960.291 156.185L886.517 256.467L964.715 353.34L838.886 341.241L791.924 455.844L739.869 343.463L614.709 361.193L688.483 260.911L610.285 164.038L736.114 176.137L783.076 61.5341Z" fill="#796B37"/>
<path d="M225.369 61.8266L277.424 174.207L402.584 156.477L328.81 256.76L407.008 353.632L281.178 341.534L234.216 456.136L182.161 343.755L57.0012 361.486L130.775 261.203L52.5775 164.331L178.407 176.429L225.369 61.8266Z" fill="#796B37"/>
<path d="M1340.37 60.8266L1392.42 173.207L1517.58 155.477L1443.81 255.76L1522.01 352.632L1396.18 340.534L1349.22 455.136L1297.16 342.755L1172 360.486L1245.78 260.203L1167.58 163.331L1293.41 175.429L1340.37 60.8266Z" fill="#796B37"/>
</svg>
