<svg width="485" height="331" viewBox="0 0 485 331" fill="none" xmlns="http://www.w3.org/2000/svg">
<ellipse cx="242.5" cy="165" rx="85.5" ry="83" transform="rotate(-41 242.5 165)" fill="url(#paint0_radial_0_1)"/>
<g filter="url(#filter0_d_0_1)">
<ellipse cx="242.228" cy="162.271" rx="41" ry="40" transform="rotate(-46.7431 242.228 162.271)" fill="url(#paint1_linear_0_1)" fill-opacity="0.63" shape-rendering="crispEdges"/>
</g>
<path d="M229.243 154.616C228.688 154.616 228.283 154.488 228.027 154.232C227.792 153.955 227.675 153.603 227.675 153.176V152.76C227.675 152.333 227.792 151.992 228.027 151.736C228.283 151.459 228.688 151.32 229.243 151.32C229.797 151.32 230.192 151.459 230.427 151.736C230.683 151.992 230.811 152.333 230.811 152.76V153.176C230.811 153.603 230.683 153.955 230.427 154.232C230.192 154.488 229.797 154.616 229.243 154.616ZM227.963 158.488H230.523V175H227.963V158.488ZM247.291 175L241.499 158.488H244.059L246.939 166.68L248.731 172.312H248.891L250.683 166.68L253.627 158.488H256.091L250.267 175H247.291Z" fill="black"/>
<path d="M224.176 238.288C222.736 238.288 221.512 238.032 220.504 237.52C219.512 237.008 218.656 236.336 217.936 235.504L220.072 233.44C220.648 234.112 221.288 234.624 221.992 234.976C222.712 235.328 223.504 235.504 224.368 235.504C225.344 235.504 226.08 235.296 226.576 234.88C227.072 234.448 227.32 233.872 227.32 233.152C227.32 232.592 227.16 232.136 226.84 231.784C226.52 231.432 225.92 231.176 225.04 231.016L223.456 230.776C220.112 230.248 218.44 228.624 218.44 225.904C218.44 225.152 218.576 224.472 218.848 223.864C219.136 223.256 219.544 222.736 220.072 222.304C220.6 221.872 221.232 221.544 221.968 221.32C222.72 221.08 223.568 220.96 224.512 220.96C225.776 220.96 226.88 221.168 227.824 221.584C228.768 222 229.576 222.616 230.248 223.432L228.088 225.472C227.672 224.96 227.168 224.544 226.576 224.224C225.984 223.904 225.24 223.744 224.344 223.744C223.432 223.744 222.744 223.92 222.28 224.272C221.832 224.608 221.608 225.088 221.608 225.712C221.608 226.352 221.792 226.824 222.16 227.128C222.528 227.432 223.12 227.656 223.936 227.8L225.496 228.088C227.192 228.392 228.44 228.936 229.24 229.72C230.056 230.488 230.464 231.568 230.464 232.96C230.464 233.76 230.32 234.488 230.032 235.144C229.76 235.784 229.352 236.344 228.808 236.824C228.28 237.288 227.624 237.648 226.84 237.904C226.072 238.16 225.184 238.288 224.176 238.288ZM241.008 238.264C240.352 238.264 239.864 238.104 239.544 237.784C239.24 237.448 239.088 237.024 239.088 236.512V236.08C239.088 235.568 239.24 235.144 239.544 234.808C239.864 234.472 240.352 234.304 241.008 234.304C241.68 234.304 242.168 234.472 242.472 234.808C242.776 235.144 242.928 235.568 242.928 236.08V236.512C242.928 237.024 242.776 237.448 242.472 237.784C242.168 238.104 241.68 238.264 241.008 238.264ZM252.332 238V221.248H263.372V224.056H255.5V228.112H262.46V230.92H255.5V235.192H263.372V238H252.332Z" fill="#F1A027" fill-opacity="0.88"/>
<defs>
<filter id="filter0_d_0_1" x="197.755" y="121.737" width="88.9454" height="89.0674" filterUnits="userSpaceOnUse" color-interpolation-filters="sRGB">
<feFlood flood-opacity="0" result="BackgroundImageFix"/>
<feColorMatrix in="SourceAlpha" type="matrix" values="0 0 0 0 0 0 0 0 0 0 0 0 0 0 0 0 0 0 127 0" result="hardAlpha"/>
<feOffset dy="4"/>
<feGaussianBlur stdDeviation="2"/>
<feComposite in2="hardAlpha" operator="out"/>
<feColorMatrix type="matrix" values="0 0 0 0 0 0 0 0 0 0 0 0 0 0 0 0 0 0 0.25 0"/>
<feBlend mode="normal" in2="BackgroundImageFix" result="effect1_dropShadow_0_1"/>
<feBlend mode="normal" in="SourceGraphic" in2="effect1_dropShadow_0_1" result="shape"/>
</filter>
<radialGradient id="paint0_radial_0_1" cx="0" cy="0" r="1" gradientUnits="userSpaceOnUse" gradientTransform="translate(235.089 84.3568) rotate(83.3426) scale(167.765 172.818)">
<stop offset="0.71875" stop-color="#324424"/>
<stop offset="0.947917" stop-color="#3AA7A0" stop-opacity="0.5"/>
</radialGradient>
<linearGradient id="paint1_linear_0_1" x1="242.228" y1="122.271" x2="242.228" y2="202.271" gradientUnits="userSpaceOnUse">
<stop offset="0.557292" stop-color="#A4C7DB"/>
<stop offset="1" stop-color="#9FD1ED" stop-opacity="0"/>
</linearGradient>
</defs>
</svg>
