<svg width="699" height="234" viewBox="0 0 699 234" fill="none" xmlns="http://www.w3.org/2000/svg">
<rect width="699" height="234" fill="#1E1E1E"/>
<path d="M129 130H100.273V36.9091H130.273C139.303 36.9091 147.03 38.7727 153.455 42.5C159.879 46.197 164.803 51.5151 168.227 58.4545C171.652 65.3636 173.364 73.6364 173.364 83.2727C173.364 92.9697 171.636 101.318 168.182 108.318C164.727 115.288 159.697 120.652 153.091 124.409C146.485 128.136 138.455 130 129 130ZM111.545 120H128.273C135.97 120 142.348 118.515 147.409 115.545C152.47 112.576 156.242 108.348 158.727 102.864C161.212 97.3788 162.455 90.8485 162.455 83.2727C162.455 75.7576 161.227 69.2879 158.773 63.8636C156.318 58.4091 152.652 54.2273 147.773 51.3182C142.894 48.3788 136.818 46.9091 129.545 46.9091H111.545V120Z" fill="url(#paint0_radial_0_1)" fill-opacity="0.94"/>
<path d="M266.164 36.9091H277.436V98.5455C277.436 104.909 275.936 110.591 272.936 115.591C269.967 120.561 265.77 124.485 260.345 127.364C254.921 130.212 248.558 131.636 241.255 131.636C233.952 131.636 227.588 130.212 222.164 127.364C216.739 124.485 212.527 120.561 209.527 115.591C206.558 110.591 205.073 104.909 205.073 98.5455V36.9091H216.345V97.6364C216.345 102.182 217.345 106.227 219.345 109.773C221.345 113.288 224.194 116.061 227.891 118.091C231.618 120.091 236.073 121.091 241.255 121.091C246.436 121.091 250.891 120.091 254.618 118.091C258.345 116.061 261.194 113.288 263.164 109.773C265.164 106.227 266.164 102.182 266.164 97.6364V36.9091Z" fill="url(#paint1_linear_0_1)"/>
<path d="M312.748 36.9091H326.202L357.839 114.182H358.93L390.566 36.9091H404.02V130H393.475V59.2727H392.566L363.475 130H353.293L324.202 59.2727H323.293V130H312.748V36.9091Z" fill="url(#paint2_diamond_0_1)"/>
<path d="M439.423 130V36.9091H450.695V83.0909H451.786L493.605 36.9091H508.332L469.241 78.9091L508.332 130H494.695L462.332 86.7273L450.695 99.8182V130H439.423Z" fill="url(#paint3_diamond_0_1)"/>
<path d="M539.541 130H527.723L561.905 36.9091H573.541L607.723 130H595.905L568.086 51.6364H567.359L539.541 130ZM543.905 93.6364H591.541V103.636H543.905V93.6364Z" fill="url(#paint4_radial_0_1)"/>
<path d="M215.884 181.545V199H212.722V181.545H215.884ZM236.051 181.545V199H233.239L225.014 187.111H224.869V199H221.708V181.545H224.537L232.753 193.443H232.906V181.545H236.051ZM251.382 186.344C251.303 185.599 250.968 185.02 250.377 184.605C249.791 184.19 249.03 183.983 248.093 183.983C247.434 183.983 246.868 184.082 246.397 184.281C245.925 184.48 245.564 184.75 245.314 185.091C245.064 185.432 244.936 185.821 244.931 186.259C244.931 186.622 245.013 186.937 245.178 187.205C245.348 187.472 245.578 187.699 245.868 187.886C246.158 188.068 246.479 188.222 246.831 188.347C247.184 188.472 247.539 188.577 247.897 188.662L249.533 189.071C250.192 189.224 250.826 189.432 251.434 189.693C252.047 189.955 252.595 190.284 253.078 190.682C253.567 191.08 253.953 191.56 254.237 192.122C254.522 192.685 254.664 193.344 254.664 194.099C254.664 195.122 254.402 196.023 253.88 196.801C253.357 197.574 252.601 198.179 251.612 198.616C250.63 199.048 249.439 199.264 248.041 199.264C246.684 199.264 245.505 199.054 244.505 198.634C243.51 198.213 242.732 197.599 242.169 196.793C241.612 195.986 241.311 195.003 241.266 193.844H244.377C244.422 194.452 244.61 194.957 244.939 195.361C245.269 195.764 245.698 196.065 246.226 196.264C246.76 196.463 247.357 196.562 248.016 196.562C248.703 196.562 249.306 196.46 249.823 196.256C250.345 196.045 250.755 195.756 251.05 195.386C251.345 195.011 251.496 194.574 251.502 194.074C251.496 193.619 251.362 193.244 251.101 192.949C250.84 192.648 250.473 192.398 250.002 192.199C249.536 191.994 248.99 191.812 248.365 191.653L246.38 191.142C244.942 190.773 243.806 190.213 242.97 189.463C242.141 188.707 241.726 187.705 241.726 186.455C241.726 185.426 242.005 184.526 242.561 183.753C243.124 182.98 243.888 182.381 244.854 181.955C245.82 181.523 246.914 181.307 248.135 181.307C249.374 181.307 250.459 181.523 251.391 181.955C252.328 182.381 253.064 182.974 253.598 183.736C254.132 184.491 254.408 185.361 254.425 186.344H251.382ZM259.883 199V181.545H266.428C267.769 181.545 268.894 181.795 269.803 182.295C270.718 182.795 271.408 183.483 271.874 184.358C272.346 185.227 272.581 186.216 272.581 187.324C272.581 188.443 272.346 189.437 271.874 190.307C271.402 191.176 270.706 191.861 269.786 192.361C268.865 192.855 267.732 193.102 266.385 193.102H262.047V190.503H265.959C266.743 190.503 267.385 190.366 267.885 190.094C268.385 189.821 268.755 189.446 268.993 188.969C269.238 188.491 269.36 187.943 269.36 187.324C269.36 186.705 269.238 186.159 268.993 185.688C268.755 185.216 268.383 184.849 267.877 184.588C267.377 184.321 266.732 184.188 265.942 184.188H263.044V199H259.883ZM280.89 181.545V199H277.728V181.545H280.89ZM286.714 199V181.545H293.259C294.6 181.545 295.725 181.778 296.634 182.244C297.549 182.71 298.239 183.364 298.705 184.205C299.177 185.04 299.413 186.014 299.413 187.128C299.413 188.247 299.174 189.219 298.697 190.043C298.225 190.861 297.529 191.494 296.609 191.943C295.688 192.386 294.558 192.608 293.217 192.608H288.555V189.983H292.79C293.575 189.983 294.217 189.875 294.717 189.659C295.217 189.437 295.586 189.116 295.825 188.696C296.069 188.27 296.191 187.747 296.191 187.128C296.191 186.509 296.069 185.98 295.825 185.543C295.58 185.099 295.208 184.764 294.708 184.537C294.208 184.304 293.563 184.188 292.773 184.188H289.876V199H286.714ZM295.731 191.091L300.052 199H296.523L292.279 191.091H295.731ZM304.723 199V181.545H316.075V184.196H307.885V188.935H315.487V191.585H307.885V196.349H316.144V199H304.723ZM327.616 199H321.701V181.545H327.735C329.468 181.545 330.957 181.895 332.201 182.594C333.451 183.287 334.412 184.284 335.082 185.585C335.752 186.886 336.088 188.443 336.088 190.256C336.088 192.074 335.75 193.636 335.073 194.943C334.403 196.25 333.434 197.253 332.167 197.952C330.906 198.651 329.389 199 327.616 199ZM324.863 196.264H327.463C328.679 196.264 329.693 196.043 330.505 195.599C331.318 195.151 331.929 194.483 332.338 193.597C332.747 192.705 332.951 191.591 332.951 190.256C332.951 188.92 332.747 187.812 332.338 186.932C331.929 186.045 331.323 185.384 330.522 184.946C329.727 184.503 328.738 184.281 327.556 184.281H324.863V196.264ZM349.078 184.196V181.545H363.004V184.196H357.609V199H354.473V184.196H349.078ZM382.912 190.273C382.912 192.153 382.56 193.764 381.855 195.105C381.156 196.44 380.202 197.463 378.991 198.173C377.787 198.884 376.42 199.239 374.892 199.239C373.364 199.239 371.994 198.884 370.784 198.173C369.58 197.457 368.625 196.432 367.92 195.097C367.222 193.756 366.872 192.148 366.872 190.273C366.872 188.392 367.222 186.784 367.92 185.449C368.625 184.108 369.58 183.082 370.784 182.372C371.994 181.662 373.364 181.307 374.892 181.307C376.42 181.307 377.787 181.662 378.991 182.372C380.202 183.082 381.156 184.108 381.855 185.449C382.56 186.784 382.912 188.392 382.912 190.273ZM379.733 190.273C379.733 188.949 379.526 187.832 379.111 186.923C378.702 186.009 378.134 185.318 377.406 184.852C376.679 184.381 375.841 184.145 374.892 184.145C373.943 184.145 373.105 184.381 372.378 184.852C371.651 185.318 371.08 186.009 370.665 186.923C370.256 187.832 370.051 188.949 370.051 190.273C370.051 191.597 370.256 192.716 370.665 193.631C371.08 194.54 371.651 195.23 372.378 195.702C373.105 196.168 373.943 196.401 374.892 196.401C375.841 196.401 376.679 196.168 377.406 195.702C378.134 195.23 378.702 194.54 379.111 193.631C379.526 192.716 379.733 191.597 379.733 190.273ZM411.595 187.435H408.407C408.316 186.912 408.149 186.449 407.904 186.045C407.66 185.636 407.356 185.29 406.992 185.006C406.629 184.722 406.214 184.509 405.748 184.366C405.288 184.219 404.791 184.145 404.257 184.145C403.308 184.145 402.467 184.384 401.734 184.861C401.001 185.332 400.427 186.026 400.012 186.94C399.598 187.849 399.39 188.96 399.39 190.273C399.39 191.608 399.598 192.733 400.012 193.648C400.433 194.557 401.007 195.244 401.734 195.71C402.467 196.17 403.305 196.401 404.248 196.401C404.771 196.401 405.26 196.332 405.714 196.196C406.174 196.054 406.586 195.847 406.95 195.574C407.319 195.301 407.629 194.966 407.879 194.568C408.135 194.17 408.311 193.716 408.407 193.205L411.595 193.222C411.475 194.051 411.217 194.83 410.819 195.557C410.427 196.284 409.913 196.926 409.277 197.483C408.64 198.034 407.896 198.466 407.044 198.778C406.191 199.085 405.245 199.239 404.206 199.239C402.671 199.239 401.302 198.884 400.098 198.173C398.893 197.463 397.944 196.438 397.251 195.097C396.558 193.756 396.211 192.148 396.211 190.273C396.211 188.392 396.561 186.784 397.26 185.449C397.958 184.108 398.91 183.082 400.115 182.372C401.319 181.662 402.683 181.307 404.206 181.307C405.177 181.307 406.081 181.443 406.916 181.716C407.751 181.989 408.495 182.389 409.149 182.918C409.802 183.44 410.339 184.082 410.76 184.844C411.186 185.599 411.464 186.463 411.595 187.435ZM432.487 190.273C432.487 192.153 432.135 193.764 431.43 195.105C430.731 196.44 429.777 197.463 428.566 198.173C427.362 198.884 425.995 199.239 424.467 199.239C422.939 199.239 421.569 198.884 420.359 198.173C419.155 197.457 418.2 196.432 417.495 195.097C416.797 193.756 416.447 192.148 416.447 190.273C416.447 188.392 416.797 186.784 417.495 185.449C418.2 184.108 419.155 183.082 420.359 182.372C421.569 181.662 422.939 181.307 424.467 181.307C425.995 181.307 427.362 181.662 428.566 182.372C429.777 183.082 430.731 184.108 431.43 185.449C432.135 186.784 432.487 188.392 432.487 190.273ZM429.308 190.273C429.308 188.949 429.101 187.832 428.686 186.923C428.277 186.009 427.709 185.318 426.981 184.852C426.254 184.381 425.416 184.145 424.467 184.145C423.518 184.145 422.68 184.381 421.953 184.852C421.226 185.318 420.655 186.009 420.24 186.923C419.831 187.832 419.626 188.949 419.626 190.273C419.626 191.597 419.831 192.716 420.24 193.631C420.655 194.54 421.226 195.23 421.953 195.702C422.68 196.168 423.518 196.401 424.467 196.401C425.416 196.401 426.254 196.168 426.981 195.702C427.709 195.23 428.277 194.54 428.686 193.631C429.101 192.716 429.308 191.597 429.308 190.273ZM443.791 199H437.876V181.545H443.91C445.643 181.545 447.132 181.895 448.376 182.594C449.626 183.287 450.587 184.284 451.257 185.585C451.927 186.886 452.263 188.443 452.263 190.256C452.263 192.074 451.925 193.636 451.248 194.943C450.578 196.25 449.609 197.253 448.342 197.952C447.081 198.651 445.564 199 443.791 199ZM441.038 196.264H443.638C444.854 196.264 445.868 196.043 446.68 195.599C447.493 195.151 448.104 194.483 448.513 193.597C448.922 192.705 449.126 191.591 449.126 190.256C449.126 188.92 448.922 187.812 448.513 186.932C448.104 186.045 447.498 185.384 446.697 184.946C445.902 184.503 444.913 184.281 443.731 184.281H441.038V196.264ZM457.667 199V181.545H469.019V184.196H460.829V188.935H468.431V191.585H460.829V196.349H469.087V199H457.667Z" fill="url(#paint5_linear_0_1)"/>
<defs>
<radialGradient id="paint0_radial_0_1" cx="0" cy="0" r="1" gradientUnits="userSpaceOnUse" gradientTransform="translate(350 97.5) rotate(90) scale(91.5 261)">
<stop offset="0.869692" stop-color="#FC0F64" stop-opacity="0.57"/>
<stop offset="0.869792" stop-color="#1CE6C1"/>
</radialGradient>
<linearGradient id="paint1_linear_0_1" x1="350" y1="6" x2="350" y2="189" gradientUnits="userSpaceOnUse">
<stop stop-color="#10FFD4"/>
<stop offset="1" stop-color="#15FF10" stop-opacity="0"/>
</linearGradient>
<radialGradient id="paint2_diamond_0_1" cx="0" cy="0" r="1" gradientUnits="userSpaceOnUse" gradientTransform="translate(350 97.5) rotate(90) scale(91.5 261)">
<stop offset="0.197917" stop-color="#00FFA3"/>
<stop offset="0.973958" stop-color="#6E0FCD" stop-opacity="0.39"/>
</radialGradient>
<radialGradient id="paint3_diamond_0_1" cx="0" cy="0" r="1" gradientUnits="userSpaceOnUse" gradientTransform="translate(350 97.5) rotate(90) scale(91.5 261)">
<stop stop-color="#370303"/>
<stop offset="1" stop-color="#EE3939" stop-opacity="0.87"/>
</radialGradient>
<radialGradient id="paint4_radial_0_1" cx="0" cy="0" r="1" gradientUnits="userSpaceOnUse" gradientTransform="translate(350 97.5) rotate(90) scale(91.5 261)">
<stop offset="0.84375" stop-color="#0063F8"/>
<stop offset="1" stop-color="#0CF090" stop-opacity="0.81"/>
</radialGradient>
<linearGradient id="paint5_linear_0_1" x1="342.5" y1="176" x2="342.5" y2="202" gradientUnits="userSpaceOnUse">
<stop stop-color="white"/>
<stop offset="1" stop-color="#66FC90" stop-opacity="0.09"/>
</linearGradient>
</defs>
</svg>
